<svg width="55" height="55" viewBox="0 0 55 55" fill="none" xmlns="http://www.w3.org/2000/svg">
<path d="M51.3107 14.369C48.8516 10.1556 45.516 6.81987 41.303 4.36101C37.0893 1.90203 32.4893 0.672852 27.4996 0.672852C22.5105 0.672852 17.9089 1.90241 13.6962 4.36101C9.48277 6.81975 6.14727 10.1556 3.68816 14.369C1.22943 18.5823 0 23.1832 0 28.1717C0 34.1639 1.74827 39.5523 5.24567 44.3382C8.74271 49.1245 13.2604 52.4364 18.7982 54.2744C19.4429 54.394 19.9201 54.3099 20.2303 54.024C20.5407 53.7378 20.6957 53.3794 20.6957 52.9502C20.6957 52.8786 20.6896 52.2344 20.6777 51.0167C20.6654 49.7991 20.6596 48.7369 20.6596 47.8305L19.836 47.973C19.3109 48.0692 18.6485 48.1099 17.8487 48.0984C17.0493 48.0872 16.2195 48.0034 15.3603 47.8477C14.5007 47.6933 13.7012 47.3352 12.9611 46.7743C12.2214 46.2133 11.6963 45.479 11.3859 44.5725L11.0279 43.7485C10.7892 43.2 10.4135 42.5906 9.90015 41.9226C9.38683 41.2541 8.86774 40.8008 8.34264 40.5621L8.09194 40.3827C7.92488 40.2634 7.76987 40.1196 7.62653 39.9526C7.4833 39.7857 7.37607 39.6187 7.30446 39.4514C7.23273 39.2839 7.29217 39.1466 7.48343 39.0389C7.67468 38.9311 8.02032 38.8788 8.52185 38.8788L9.23771 38.9858C9.71516 39.0815 10.3057 39.3673 11.0102 39.845C11.7143 40.3224 12.293 40.9429 12.7467 41.7064C13.296 42.6854 13.9578 43.4314 14.734 43.9447C15.5095 44.458 16.2915 44.7142 17.0791 44.7142C17.8667 44.7142 18.5469 44.6545 19.1201 44.5358C19.6926 44.4164 20.2297 44.2369 20.7312 43.9984C20.9461 42.3983 21.531 41.1691 22.4855 40.3099C21.125 40.167 19.9019 39.9516 18.8154 39.6653C17.7296 39.3786 16.6075 38.9133 15.45 38.2682C14.2918 37.624 13.331 36.8239 12.5673 35.8695C11.8035 34.9146 11.1767 33.661 10.6877 32.1098C10.1985 30.5579 9.95382 28.7678 9.95382 26.7388C9.95382 23.8499 10.8969 21.3916 12.7828 19.3624C11.8994 17.1904 11.9828 14.7557 13.0332 12.0583C13.7255 11.8432 14.7521 12.0046 16.1126 12.5415C17.4734 13.0786 18.4697 13.5388 19.1025 13.9203C19.7353 14.3017 20.2424 14.6249 20.6244 14.887C22.8448 14.2666 25.1363 13.9563 27.4993 13.9563C29.8624 13.9563 32.1543 14.2666 34.3749 14.887L35.7355 14.028C36.6659 13.4549 37.7647 12.9296 39.0291 12.4522C40.2943 11.975 41.2617 11.8436 41.9304 12.0586C43.0042 14.7562 43.0999 17.1908 42.2162 19.3627C44.1019 21.3919 45.0454 23.8509 45.0454 26.7392C45.0454 28.7681 44.7999 30.5639 44.3114 32.1277C43.8223 33.6917 43.1901 34.9441 42.4145 35.8875C41.6381 36.8307 40.6711 37.6245 39.5136 38.2686C38.3557 38.9132 37.2333 39.3785 36.1475 39.6652C35.0611 39.9519 33.838 40.1673 32.4775 40.3106C33.7183 41.3844 34.3389 43.0793 34.3389 45.3947V52.9492C34.3389 53.3784 34.4881 53.7367 34.7868 54.023C35.0852 54.3089 35.5564 54.393 36.201 54.2732C41.7396 52.4356 46.2573 49.1235 49.7542 44.3372C53.2507 39.5513 54.9996 34.1629 54.9996 28.1707C54.9984 23.1828 53.7683 18.5823 51.3107 14.369Z" fill="white"/>
</svg>
